<?xml version="1.0" encoding="utf-8"?>
<!-- Generator: Adobe Illustrator 19.1.0, SVG Export Plug-In . SVG Version: 6.00 Build 0)  -->
<svg version="1.1" id="Capa_1" xmlns="http://www.w3.org/2000/svg" xmlns:xlink="http://www.w3.org/1999/xlink" x="0px" y="0px"
	 viewBox="-283 257.6 432.6 486.4" style="enable-background:new -283 257.6 432.6 486.4;" xml:space="preserve">
<style type="text/css">
	.st0{fill:#BF0000;}
</style>
<g>
	<g>
		<path class="st0" d="M120.5,340.9H27.1v-15.2c0-27.2-22.2-49.4-49.4-49.4h-88.8c-27.2,0-49.4,22.2-49.4,49.4v15.2h-93.4
			c-6.9,0-12.5,5.5-12.5,12.5s5.5,12.5,12.5,12.5h22.5v292.9c0,36.7,29.9,66.7,66.7,66.7H31.3c36.7,0,66.7-29.9,66.7-66.7V365.8
			h22.5c6.9,0,12.5-5.5,12.5-12.5S127.5,340.9,120.5,340.9z M-135.6,325.7c0-13.5,11-24.5,24.5-24.5h88.8c13.5,0,24.5,11,24.5,24.5
			v15.2h-137.7V325.7z M73.1,658.7c0,23-18.7,41.7-41.7,41.7h-196.1c-23,0-41.7-18.7-41.7-41.7V365.8H73.2L73.1,658.7L73.1,658.7
			L73.1,658.7z"/>
		<path class="st0" d="M-66.7,655.7c6.9,0,12.5-5.5,12.5-12.5V423c0-6.9-5.5-12.5-12.5-12.5S-79.2,416-79.2,423v220.2
			C-79.2,650.1-73.6,655.7-66.7,655.7z"/>
		<path class="st0" d="M-148,642c6.9,0,12.5-5.5,12.5-12.5V436.6c0-6.9-5.5-12.5-12.5-12.5c-6.9,0-12.5,5.5-12.5,12.5v192.9
			C-160.5,636.4-154.9,642-148,642z"/>
		<path class="st0" d="M14.6,642c6.9,0,12.5-5.5,12.5-12.5V436.6c0-6.9-5.5-12.5-12.5-12.5s-12.5,5.5-12.5,12.5v192.9
			C2.2,636.4,7.7,642,14.6,642z"/>
	</g>
</g>
</svg>
