<?xml version="1.0" encoding="utf-8"?>
<!-- Generator: Adobe Illustrator 19.1.0, SVG Export Plug-In . SVG Version: 6.00 Build 0)  -->
<svg version="1.1" id="Layer_1" xmlns="http://www.w3.org/2000/svg" xmlns:xlink="http://www.w3.org/1999/xlink" x="0px" y="0px"
	 viewBox="-545.2 988.9 421.2 530.7" style="enable-background:new -545.2 988.9 421.2 530.7;" xml:space="preserve">
<style type="text/css">
	.st0{display:none;}
	.st1{display:inline;}
	.st2{fill:#BF0000;}
</style>
<g id="Capa_1_1_" class="st0">
	<g class="st1">
		<g>
			<path class="st2" d="M-442.1,1349c3.3-3.3,5-7.2,5-11.7v-165.9c0-4.5-1.7-8.4-5-11.7c-3.3-3.3-7.2-5-11.7-5h-74.7
				c-4.5,0-8.4,1.7-11.7,5c-3.3,3.3-5,7.2-5,11.7v166c0,4.5,1.7,8.4,5,11.7s7.2,5,11.7,5h74.7C-449.3,1354-445.4,1352.3-442.1,1349z
				"/>
			<path class="st2" d="M-125,1171.3c-0.2-13.4-5.1-25.1-15-35c-9.7-9.8-21.4-14.8-34.9-14.8h-71.8c0.7-2.4,1.4-4.5,2-6.2
				c0.7-1.7,1.7-3.7,2.8-5.7c1.3-2,2.1-3.6,2.6-4.7c3.1-6.4,5.4-11.3,7-14.8c1.6-3.4,3.2-8.5,5-15.1c1.7-6.6,2.6-13.2,2.6-19.8
				c0-4.2-0.1-7.6-0.1-10.1s-0.5-6.5-1.3-11.7c-0.8-5.1-1.8-9.4-3.1-12.9c-1.3-3.4-3.4-7.4-6.2-11.7c-2.9-4.3-6.3-7.8-10.4-10.5
				c-4.1-2.6-9.2-4.9-15.5-6.7c-6.3-1.8-13.4-2.7-21.4-2.7c-4.5,0-8.4,1.7-11.7,5c-3.5,3.4-6.4,7.8-8.8,12.9
				c-2.4,5.2-4.1,9.7-5,13.5c-0.9,3.8-2,9.1-3.2,15.8c-1.6,7.3-2.7,12.5-3.5,15.7c-0.8,3.1-2.3,7.4-4.6,12.5
				c-2.2,5.1-5,9.3-8.1,12.4c-5.7,5.6-14.5,16-26.2,31.1c-8.5,11.1-17.2,21.6-26.2,31.4c-9,9.9-15.5,15-19.7,15.3
				c-4.4,0.4-8.1,2.1-11.2,5.3s-4.7,7-4.7,11.3v166.3c0,4.5,1.7,8.4,5,11.6c3.3,3.2,7.2,4.9,11.7,5c6,0.1,19.7,3.9,41,11.4
				c13.3,4.5,23.8,7.9,31.3,10.2s18,4.8,31.5,7.5c13.4,2.6,25.9,4,37.3,4h4.4h19.7h9.3c23-0.3,40-7.1,51.1-20.2
				c10-11.9,14.3-27.6,12.7-46.9c6.7-6.4,11.4-14.6,14-24.4c2.9-10.5,2.9-20.6,0-30.3c8-10.6,11.7-22.4,11.2-35.5
				c0-5.5-1.3-12.1-3.9-19.7C-129.9,1199.5-125.1,1186.6-125,1171.3z"/>
		</g>
	</g>
</g>
<g id="Capa_1_2_">
	<g>
		<g>
			<path class="st2" d="M-227.1,1159.5c-3.3,3.3-5,7.2-5,11.7v166c0,4.5,1.7,8.4,5,11.7s7.2,5,11.7,5h74.7c4.5,0,8.4-1.7,11.7-5
				c3.3-3.3,5-7.2,5-11.7v-165.9c0-4.5-1.7-8.4-5-11.7c-3.3-3.3-7.2-5-11.7-5h-74.7C-219.8,1154.6-223.7,1156.3-227.1,1159.5z"/>
			<path class="st2" d="M-544.1,1337.2c0.2,13.4,5.2,25.2,15,35c9.8,9.8,21.4,14.8,34.9,14.8h71.9c-0.6,2.4-1.3,4.5-2,6.2
				c-0.7,1.7-1.6,3.7-2.8,5.7c-1.2,2.1-2.1,3.6-2.6,4.7c-3.1,6.4-5.4,11.3-7,14.8c-1.6,3.4-3.3,8.5-5,15.1
				c-1.7,6.6-2.6,13.2-2.6,19.8c0,4.2,0.1,7.5,0.1,10.1s0.5,6.6,1.3,11.7s1.8,9.4,3.1,12.9c1.2,3.4,3.4,7.4,6.2,11.7
				c2.9,4.3,6.3,7.8,10.4,10.5c4,2.6,9.1,4.9,15.5,6.7s13.4,2.7,21.4,2.7c4.5,0,8.4-1.7,11.7-5c3.5-3.4,6.4-7.8,8.8-12.9
				c2.4-5.2,4-9.7,5-13.5c0.9-3.8,2-9.1,3.2-15.8c1.6-7.3,2.7-12.5,3.5-15.7c0.8-3.1,2.3-7.4,4.6-12.5c2.3-5.1,5-9.3,8.1-12.4
				c5.7-5.7,14.5-16.1,26.2-31.1c8.5-11.1,17.2-21.6,26.2-31.4c9-9.9,15.5-14.9,19.7-15.3c4.4-0.3,8.1-2.1,11.2-5.3
				c3.1-3.2,4.7-7,4.7-11.3v-166.1c0-4.5-1.7-8.4-5-11.6c-3.3-3.2-7.2-4.8-11.7-5c-6-0.1-19.7-3.9-41-11.4
				c-13.3-4.5-23.8-7.9-31.3-10.2c-7.5-2.4-18-4.8-31.5-7.5c-13.4-2.6-25.9-4-37.3-4h-4.4h-19.7h-9.3c-23,0.3-40,7.1-51.1,20.2
				c-10,11.9-14.3,27.6-12.7,46.9c-6.7,6.4-11.4,14.6-14,24.4c-2.9,10.5-2.9,20.6,0,30.3c-8,10.5-11.7,22.4-11.2,35.5
				c0,5.5,1.3,12.1,3.9,19.7C-539.2,1309.1-544,1322-544.1,1337.2z"/>
		</g>
	</g>
</g>
</svg>
