<?xml version="1.0" encoding="utf-8"?>
<!-- Generator: Adobe Illustrator 19.1.0, SVG Export Plug-In . SVG Version: 6.00 Build 0)  -->
<svg version="1.1" id="Capa_1" xmlns="http://www.w3.org/2000/svg" xmlns:xlink="http://www.w3.org/1999/xlink" x="0px" y="0px"
	 viewBox="-264 266.7 469.3 469.3" style="enable-background:new -264 266.7 469.3 469.3;" xml:space="preserve">
<style type="text/css">
	.st0{fill:#BF0000;}
</style>
<g>
	<path class="st0" d="M166.8,305.2c-38.8-38.9-101.9-38.9-140.7,0l-258,257.9c-2,2-3.3,4.6-3.6,7.4L-254.6,712
		c-0.6,4,0.9,8.1,3.6,10.9c2.4,2.4,5.8,3.8,9.1,3.8c0.6,0,1.2,0,1.7-0.1l85.3-11.5c7.1-1,12.1-7.5,11.1-14.6s-7.5-12.1-14.6-11.1
		l-68.4,9.2l13.3-98.7l103.9,103.9c2.4,2.4,5.8,3.8,9.1,3.8c3.4,0,6.7-1.3,9.1-3.8l258-257.9c18.8-18.8,29.2-43.8,29.2-70.4
		C196,348.9,185.6,323.9,166.8,305.2z M31.1,336.9l43.3,43.3L-161,615.6l-43.3-43.3L31.1,336.9z M-100.2,676.3l-42.4-42.4
		L92.9,398.5l42.4,42.4L-100.2,676.3z M153.3,422.3L49.7,318.7c13.2-10.9,29.6-16.8,46.9-16.8c19.7,0,38.1,7.7,52.1,21.5
		s21.5,32.4,21.5,52.1C170.1,392.9,164.1,409.2,153.3,422.3z"/>
</g>
</svg>
