<?xml version="1.0" encoding="utf-8"?>
<!-- Generator: Adobe Illustrator 19.1.0, SVG Export Plug-In . SVG Version: 6.00 Build 0)  -->
<svg version="1.1" id="Capa_1" xmlns="http://www.w3.org/2000/svg" xmlns:xlink="http://www.w3.org/1999/xlink" x="0px" y="0px"
	 viewBox="-258 259.9 482.1 482.1" style="enable-background:new -258 259.9 482.1 482.1;" xml:space="preserve">
<style type="text/css">
	.st0{fill:#BF0000;}
</style>
<g>
	<path class="st0" d="M189.4,459.7L65.6,583.4c-34.2,34.2-89.6,34.2-123.8,0l-41.3-41.3l41.3-41.3l41.3,41.3
		c11.4,11.4,29.9,11.4,41.3,0l123.8-123.8c11.4-11.4,11.4-29.9,0-41.3l-41.3-41.3c-11.4-11.4-29.9-11.4-41.3,0l-44.2,44.2
		C0.9,368-22.4,362.9-45.4,364.4l69.8-69.8c34.2-34.2,89.6-34.2,123.8,0l41.3,41.3C223.5,370.1,223.5,425.5,189.4,459.7z
		 M-55.3,621.8L-99.4,666c-11.4,11.4-29.9,11.4-41.3,0l-41.3-41.3c-11.4-11.4-11.4-29.9,0-41.3l123.8-123.8
		c11.4-11.4,29.9-11.4,41.3,0l41.3,41.3l41.3-41.3l-41.3-41.3c-34.2-34.2-89.6-34.2-123.8,0l-123.8,123.8
		c-34.2,34.2-34.2,89.6,0,123.8l41.3,41.3c34.2,34.2,89.6,34.2,123.8,0l69.7-69.8C-11.5,639-34.7,633.8-55.3,621.8z"/>
</g>
</svg>
