<?xml version="1.0" encoding="utf-8"?>
<!-- Generator: Adobe Illustrator 19.1.0, SVG Export Plug-In . SVG Version: 6.00 Build 0)  -->
<svg version="1.1" id="Layer_1" xmlns="http://www.w3.org/2000/svg" xmlns:xlink="http://www.w3.org/1999/xlink" x="0px" y="0px"
	 viewBox="-545.2 1121.5 421.2 398.2" style="enable-background:new -545.2 1121.5 421.2 398.2;" xml:space="preserve">
<style type="text/css">
	.st0{fill:#BF0000;}
	.st1{display:none;}
	.st2{display:inline;}
</style>
<g id="Capa_1_1_">
	<g>
		<g>
			<path class="st0" d="M-442.1,1481.6c3.3-3.3,5-7.2,5-11.7V1304c0-4.5-1.7-8.4-5-11.7c-3.3-3.3-7.2-5-11.7-5h-74.7
				c-4.5,0-8.4,1.7-11.7,5c-3.3,3.3-5,7.2-5,11.7v166c0,4.5,1.7,8.4,5,11.7s7.2,5,11.7,5h74.7
				C-449.3,1486.6-445.4,1484.9-442.1,1481.6z"/>
			<path class="st0" d="M-125,1303.9c-0.2-13.4-5.1-25.1-15-35c-9.7-9.8-21.4-14.8-34.9-14.8h-71.8c0.7-2.4,1.4-4.5,2-6.2
				c0.7-1.7,1.7-3.7,2.8-5.7c1.3-2,2.1-3.6,2.6-4.7c3.1-6.4,5.4-11.3,7-14.8c1.6-3.4,3.2-8.5,5-15.1c1.7-6.6,2.6-13.2,2.6-19.8
				c0-4.2-0.1-7.6-0.1-10.1s-0.5-6.5-1.3-11.7c-0.8-5.1-1.8-9.4-3.1-12.9c-1.3-3.4-3.4-7.4-6.2-11.7c-2.9-4.3-6.3-7.8-10.4-10.5
				c-4.1-2.6-9.2-4.9-15.5-6.7c-6.3-1.8-13.4-2.7-21.4-2.7c-4.5,0-8.4,1.7-11.7,5c-3.5,3.4-6.4,7.8-8.8,12.9
				c-2.4,5.2-4.1,9.7-5,13.5c-0.9,3.8-2,9.1-3.2,15.8c-1.6,7.3-2.7,12.5-3.5,15.7c-0.8,3.1-2.3,7.4-4.6,12.5
				c-2.2,5.1-5,9.3-8.1,12.4c-5.7,5.6-14.5,16-26.2,31.1c-8.5,11.1-17.2,21.6-26.2,31.4c-9,9.9-15.5,15-19.7,15.3
				c-4.4,0.4-8.1,2.1-11.2,5.3s-4.7,7-4.7,11.3V1470c0,4.5,1.7,8.4,5,11.6c3.3,3.2,7.2,4.9,11.7,5c6,0.1,19.7,3.9,41,11.4
				c13.3,4.5,23.8,7.9,31.3,10.2s18,4.8,31.5,7.5c13.4,2.6,25.9,4,37.3,4h4.4h19.7h9.3c23-0.3,40-7.1,51.1-20.2
				c10-11.9,14.3-27.6,12.7-46.9c6.7-6.4,11.4-14.6,14-24.4c2.9-10.5,2.9-20.6,0-30.3c8-10.6,11.7-22.4,11.2-35.5
				c0-5.5-1.3-12.1-3.9-19.7C-129.9,1332.1-125.1,1319.2-125,1303.9z"/>
		</g>
	</g>
</g>
<g id="Capa_1_2_" class="st1">
	<g class="st2">
		<g>
			<path class="st0" d="M-452.7,1154.6h-74.7c-4.5,0-8.4,1.7-11.7,5c-3.3,3.3-5,7.2-5,11.7v165.9c0,4.5,1.7,8.4,5,11.7
				c3.3,3.3,7.2,5,11.7,5h74.7c4.5,0,8.4-1.7,11.7-5s5-7.2,5-11.7v-166c0-4.5-1.7-8.4-5-11.7
				C-444.4,1156.3-448.3,1154.6-452.7,1154.6z"/>
			<path class="st0" d="M-138.4,1298.6c2.6-7.6,3.9-14.2,3.9-19.7c0.5-13.1-3.2-25-11.2-35.5c2.9-9.7,2.9-19.8,0-30.3
				c-2.6-9.8-7.3-18-14-24.4c1.6-19.3-2.7-35-12.7-46.9c-11.1-13.1-28.1-19.9-51.1-20.2h-9.3h-19.7h-4.4c-11.4,0-23.9,1.4-37.3,4
				c-13.5,2.7-24,5.1-31.5,7.5c-7.5,2.3-18,5.7-31.3,10.2c-21.3,7.5-35,11.3-41,11.4c-4.5,0.2-8.4,1.8-11.7,5c-3.3,3.2-5,7.1-5,11.6
				v166.1c0,4.3,1.6,8.1,4.7,11.3c3.1,3.2,6.8,5,11.2,5.3c4.2,0.4,10.7,5.4,19.7,15.3c9,9.8,17.7,20.3,26.2,31.4
				c11.7,15,20.5,25.4,26.2,31.1c3.1,3.1,5.8,7.3,8.1,12.4c2.3,5.1,3.8,9.4,4.6,12.5c0.8,3.2,1.9,8.4,3.5,15.7
				c1.2,6.7,2.3,12,3.2,15.8c1,3.8,2.6,8.3,5,13.5c2.4,5.1,5.3,9.5,8.8,12.9c3.3,3.3,7.2,5,11.7,5c8,0,15-0.9,21.4-2.7
				s11.5-4.1,15.5-6.7c4.1-2.7,7.5-6.2,10.4-10.5c2.8-4.3,5-8.3,6.2-11.7c1.3-3.5,2.3-7.8,3.1-12.9s1.3-9.1,1.3-11.7
				s0.1-5.9,0.1-10.1c0-6.6-0.9-13.2-2.6-19.8c-1.7-6.6-3.4-11.7-5-15.1c-1.6-3.5-3.9-8.4-7-14.8c-0.5-1.1-1.4-2.6-2.6-4.7
				c-1.2-2-2.1-4-2.8-5.7s-1.4-3.8-2-6.2h71.9c13.5,0,25.1-5,34.9-14.8c9.8-9.8,14.8-21.6,15-35
				C-124.1,1322-128.9,1309.1-138.4,1298.6z"/>
		</g>
	</g>
</g>
</svg>
